#N canvas -900 -57 864 487 10;
#X msg 18 54 close;
#X msg 4 5 devices;
#X obj 5 131 bng 15 250 50 0 empty empty empty 17 7 0 10 -262144 -1
-1;
#X obj 5 334 list trim;
#X floatatom 5 426 5 0 0 0 - - -;
#X floatatom 84 426 5 0 0 0 - - -;
#X obj 5 390 route O;
#X obj 84 390 route E;
#X msg 11 29 open 2;
#X obj 99 220 list tosymbol;
#X obj 74 154 list prepend;
#X obj 157 154 t l;
#X obj 5 188 list append;
#X symbolatom 120 239 10 0 0 0 - - -;
#X obj 5 77 comport 0 9600;
#X text 192 4 << List all devices available on the serial ports;
#X text 192 53 << Close connection (necessary to ricompile the board)
;
#X text 192 76 << ASCII numbers are read in one at a time;
#X obj 5 104 select 13 10;
#X text 192 103 << Split out Carriage Return (13) and Line Feed (10)
;
#X text 192 153 << Prepend in sequence all of the characters;
#X text 192 187 << Append only when the complete message is sent;
#X text 192 238 << Now we can see the incoming data;
#N canvas -1122 332 387 500 toascii 0;
#X obj 13 10 inlet;
#X obj 13 470 outlet;
#N canvas -1062 217 199 245 list-drip 0;
#X obj 42 39 inlet;
#X obj 42 154 list store;
#X obj 42 85 until;
#X obj 42 108 f;
#X obj 72 108 + 1;
#X msg 42 131 get \$1 1;
#X obj 85 86 0;
#X obj 42 177 outlet;
#X obj 109 177 outlet;
#X obj 42 62 t b b a;
#X connect 0 0 9 0;
#X connect 1 0 7 0;
#X connect 1 1 8 0;
#X connect 1 1 2 1;
#X connect 2 0 3 0;
#X connect 3 0 5 0;
#X connect 3 0 4 0;
#X connect 4 0 3 1;
#X connect 5 0 1 0;
#X connect 6 0 3 1;
#X connect 9 0 2 0;
#X connect 9 1 6 0;
#X connect 9 2 1 1;
#X restore 13 57 pd list-drip;
#X obj 13 80 sel 32;
#X obj 13 149 list store;
#X obj 13 34 t a b;
#X msg 60 103 append \$1;
#X obj 13 402 list tosymbol;
#X msg 13 425 append \$1;
#X obj 13 448 list store;
#X obj 94 80 t b b;
#X obj 13 103 t b b;
#X obj 13 195 route 0 1;
#N canvas -1197 381 359 452 list-drip 0;
#X obj 42 39 inlet;
#X obj 42 154 list store;
#X obj 42 85 until;
#X obj 42 108 f;
#X obj 72 108 + 1;
#X msg 42 131 get \$1 1;
#X obj 85 86 0;
#X obj 42 177 outlet;
#X obj 109 177 outlet;
#X obj 42 62 t b b a;
#X connect 0 0 9 0;
#X connect 1 0 7 0;
#X connect 1 1 8 0;
#X connect 1 1 2 1;
#X connect 2 0 3 0;
#X connect 3 0 5 0;
#X connect 3 0 4 0;
#X connect 4 0 3 1;
#X connect 5 0 1 0;
#X connect 6 0 3 1;
#X connect 9 0 2 0;
#X connect 9 1 6 0;
#X connect 9 2 1 1;
#X restore 63 241 pd list-drip;
#X obj 99 287 f;
#X obj 158 241 0;
#X obj 129 287 - 1;
#X obj 117 264 list length;
#X obj 63 333 *;
#X obj 63 356 +;
#X obj 93 356 t f;
#X obj 43 379 f;
#X obj 43 218 t b l l b;
#X obj 13 172 list prepend;
#X obj 137 126 sel 1;
#X obj 63 287 - 48;
#X obj 129 310 expr pow(10 \, $f1);
#X obj 63 264 t f b;
#X obj 94 149 1;
#X obj 137 149 0;
#X obj 137 103 expr if($f1 < 48 || $f1 > 57 \, 1 \, 0);
#X text 284 432 Made by ingox;
#X text 116 449 https://forum.pdpatchrepo.info/user/ingox;
#X connect 0 0 5 0;
#X connect 2 0 3 0;
#X connect 2 1 10 0;
#X connect 3 0 11 0;
#X connect 3 1 6 0;
#X connect 3 1 30 0;
#X connect 4 0 23 0;
#X connect 5 0 2 0;
#X connect 5 1 4 1;
#X connect 5 1 9 1;
#X connect 5 1 28 0;
#X connect 6 0 4 0;
#X connect 7 0 8 0;
#X connect 8 0 9 0;
#X connect 9 0 1 0;
#X connect 10 0 9 0;
#X connect 10 1 4 0;
#X connect 11 0 4 1;
#X connect 11 0 28 0;
#X connect 11 1 4 0;
#X connect 12 0 7 0;
#X connect 12 1 22 0;
#X connect 13 0 27 0;
#X connect 14 0 16 0;
#X connect 15 0 14 1;
#X connect 15 0 19 1;
#X connect 16 0 14 1;
#X connect 16 0 26 0;
#X connect 17 0 14 1;
#X connect 18 0 19 0;
#X connect 19 0 20 0;
#X connect 19 0 21 1;
#X connect 20 0 19 1;
#X connect 21 0 8 0;
#X connect 22 0 21 0;
#X connect 22 1 13 0;
#X connect 22 2 17 0;
#X connect 22 3 15 0;
#X connect 23 0 12 0;
#X connect 24 0 29 0;
#X connect 25 0 18 0;
#X connect 26 0 18 1;
#X connect 27 0 25 0;
#X connect 27 1 14 0;
#X connect 28 0 23 1;
#X connect 29 0 23 1;
#X connect 30 0 24 0;
#X restore 5 288 pd toascii;
#X text 192 219 << Convert ascii numbers to a symbol;
#X text 682 440 Made by Niccolo' Granieri;
#X text 192 333 << Remove the word list from the beginning in order
to have only the serial message;
#X text 192 389 << Route the desired serial messages;
#X text 512 197 This patch needs the Comport external library to work.
;
#X text 596 212 Help - Find Externals \, download: Comport;
#X text 192 287 << Convert the ascii numbers into a list (courtesy
of ingox);
#X text 192 28 << Choose the correct port replacing the number with
the port number;
#X connect 0 0 14 0;
#X connect 1 0 14 0;
#X connect 2 0 10 1;
#X connect 2 0 12 0;
#X connect 3 0 7 0;
#X connect 3 0 6 0;
#X connect 6 0 4 0;
#X connect 7 0 5 0;
#X connect 8 0 14 0;
#X connect 9 0 13 0;
#X connect 10 0 12 1;
#X connect 10 0 11 0;
#X connect 11 0 10 1;
#X connect 12 0 9 0;
#X connect 12 0 23 0;
#X connect 14 0 18 0;
#X connect 18 0 2 0;
#X connect 18 2 10 0;
#X connect 23 0 3 0;
#X coords 0 487 1 486 85 60 0;
