#N canvas -900 -57 864 487 10;
#X msg 18 54 close;
#X msg 4 5 devices;
#X obj 5 131 bng 15 250 50 0 empty empty empty 17 7 0 10 -262144 -1
-1;
#X obj 5 334 list trim;
#X floatatom 5 426 5 0 0 0 - - -;
#X floatatom 84 426 5 0 0 0 - - -;
#X obj 5 390 route O;
#X obj 84 390 route E;
#X msg 11 29 open 2;
#X obj 99 220 list tosymbol;
#X obj 74 154 list prepend;
#X obj 157 154 t l;
#X obj 5 188 list append;
#X symbolatom 120 239 10 0 0 0 - - -;
#X obj 5 77 comport 0 9600;
#X text 192 4 << List all devices available on the serial ports;
#X text 192 53 << Close connection (necessary to ricompile the board)
;
#X text 192 76 << ASCII numbers are read in one at a time;
#X obj 5 104 select 13 10;
#X text 192 103 << Split out Carriage Return (13) and Line Feed (10)
;
#X text 192 153 << Prepend in sequence all of the characters;
#X text 192 187 << Append only when the complete message is sent;
#X text 192 238 << Now we can see the incoming data;
#X text 192 219 << Convert ascii numbers to a symbol;
#X text 682 440 Made by Niccolo' Granieri;
#X text 192 333 << Remove the word list from the beginning in order
to have only the serial message;
#X text 192 389 << Route the desired serial messages;
#X text 512 197 This patch needs the Comport external library to work.
;
#X text 596 212 Help - Find Externals \, download: Comport;
#X text 192 287 << Convert the ascii numbers into a list (courtesy
of ingox);
#X text 192 28 << Choose the correct port replacing the number with
the port number;
#X obj 5 266 fudiparse;
#X connect 0 0 14 0;
#X connect 1 0 14 0;
#X connect 2 0 10 1;
#X connect 2 0 12 0;
#X connect 3 0 7 0;
#X connect 3 0 6 0;
#X connect 6 0 4 0;
#X connect 7 0 5 0;
#X connect 8 0 14 0;
#X connect 9 0 13 0;
#X connect 10 0 12 1;
#X connect 10 0 11 0;
#X connect 11 0 10 1;
#X connect 12 0 9 0;
#X connect 12 0 31 0;
#X connect 14 0 18 0;
#X connect 18 0 2 0;
#X connect 18 2 10 0;
#X connect 31 0 3 0;
#X coords 0 487 1 486 85 60 0;
